<svg viewBox="0 0 27 35" fill="none" xmlns="http://www.w3.org/2000/svg">
<path d="M11.2502 4.39261C11.9815 5.50979 12.4851 6.76094 12.732 8.07402C12.9789 9.3871 12.9642 10.7362 12.6888 12.0435C11.3861 11.7703 10.15 11.2419 9.0515 10.4888C7.95299 9.73564 7.01362 8.7725 6.2873 7.65463C5.55291 6.53804 5.0461 5.28689 4.79603 3.97319C4.54597 2.65948 4.55759 1.30918 4.83024 0C6.13639 0.271813 7.37604 0.799841 8.47783 1.5537C9.57962 2.30756 10.5218 3.27237 11.2502 4.39261Z" fill="#009444"/>
<path d="M4.83024 0L12.6888 12.0435C11.3861 11.7703 10.15 11.2419 9.0515 10.4888C7.95299 9.73564 7.01362 8.7725 6.2873 7.65463C5.55291 6.53804 5.0461 5.28689 4.79603 3.97319C4.54597 2.65948 4.55759 1.30918 4.83024 0Z" fill="#39B54A"/>
<path d="M19.0606 8.47755C18.4431 9.39781 17.6501 10.1866 16.7273 10.7986C15.8045 11.4106 14.7701 11.8337 13.6836 12.0435C13.2593 9.84293 13.7241 7.56351 14.9758 5.70625C16.2275 3.84899 18.1636 2.56586 20.3587 2.13885C20.5693 3.22904 20.5631 4.35019 20.3404 5.43796C20.1176 6.52572 19.6827 7.55869 19.0606 8.47755Z" fill="#009444"/>
<path d="M20.3587 2.13885L13.6836 12.0435C13.2593 9.84293 13.7241 7.56351 14.9758 5.70625C16.2275 3.84899 18.1636 2.56586 20.3587 2.13885Z" fill="#39B54A"/>
<path d="M24.4081 24.0945L14.2864 34.0807C13.9545 34.411 13.5059 34.5963 13.0382 34.5963C12.5706 34.5963 12.122 34.411 11.7901 34.0807L1.65354 24.0945C1.65354 24.0945 -2.99131 18.5713 3.28812 13.137C3.28812 13.137 8.49878 9.68598 13.0401 15.5539C15.1221 12.859 17.3521 12.1288 19.1531 12.1288C20.4328 12.1346 21.6877 12.4826 22.7884 13.137C29.0678 18.5713 24.4081 24.0945 24.4081 24.0945Z" fill="#DC1F26"/>
<path d="M24.4081 24.0945L14.2864 34.0807C13.9543 34.4094 13.5068 34.5944 13.0401 34.596V15.5687C15.1221 12.8739 17.3521 12.1436 19.1531 12.1436C20.4328 12.1494 21.6877 12.4975 22.7884 13.1519C29.0678 18.5713 24.4081 24.0945 24.4081 24.0945Z" fill="#BA1C24"/>
</svg>
